<svg width="1751" height="1774" xmlns="http://www.w3.org/2000/svg" xmlns:xlink="http://www.w3.org/1999/xlink" xml:space="preserve" overflow="hidden"><defs><clipPath id="clip0"><rect x="1260" y="513" width="1751" height="1774"/></clipPath></defs><g clip-path="url(#clip0)" transform="translate(-1260 -513)"><path d="M1299.5 1401C1299.5 943.984 1670.21 573.5 2127.5 573.5 2584.79 573.5 2955.5 943.984 2955.5 1401 2955.5 1858.02 2584.79 2228.5 2127.5 2228.5 1670.21 2228.5 1299.5 1858.02 1299.5 1401Z" stroke="#079DAA" stroke-width="22.9167" stroke-linecap="butt" stroke-linejoin="miter" stroke-miterlimit="8" stroke-opacity="1" fill="none" fill-rule="evenodd"/><path d="M2233 885.5C2233 869.208 2246.21 856 2262.5 856L2673.5 856C2689.79 856 2703 869.208 2703 885.5L2703 1003.5C2703 1019.79 2689.79 1033 2673.5 1033L2262.5 1033C2246.21 1033 2233 1019.79 2233 1003.5Z" stroke="#079DAA" stroke-width="13.75" stroke-linecap="butt" stroke-linejoin="miter" stroke-miterlimit="8" stroke-opacity="1" fill="none" fill-rule="evenodd"/><text fill="#343C49" fill-opacity="1" font-family="Arial,Arial_MSFontService,sans-serif" font-style="normal" font-variant="normal" font-weight="700" font-stretch="normal" font-size="48" text-anchor="start" direction="ltr" writing-mode="lr-tb" unicode-bidi="normal" text-decoration="none" transform="matrix(1 0 0 1 2392.99 934)">Daten<tspan fill="#343C49" fill-opacity="1" font-family="Arial,Arial_MSFontService,sans-serif" font-style="normal" font-variant="normal" font-weight="700" font-stretch="normal" font-size="48" text-anchor="start" direction="ltr" writing-mode="lr-tb" unicode-bidi="normal" text-decoration="none" x="134.063" y="0">-</tspan><tspan fill="#343C49" fill-opacity="1" font-family="Arial,Arial_MSFontService,sans-serif" font-style="normal" font-variant="normal" font-weight="700" font-stretch="normal" font-size="48" text-anchor="start" direction="ltr" writing-mode="lr-tb" unicode-bidi="normal" text-decoration="none" x="-60.1563" y="58">verständnis</tspan></text><path d="M2344 1673.5C2344 1657.21 2357.21 1644 2373.5 1644L2785.5 1644C2801.79 1644 2815 1657.21 2815 1673.5L2815 1791.5C2815 1807.79 2801.79 1821 2785.5 1821L2373.5 1821C2357.21 1821 2344 1807.79 2344 1791.5Z" stroke="#079DAA" stroke-width="13.75" stroke-linecap="butt" stroke-linejoin="miter" stroke-miterlimit="8" stroke-opacity="1" fill="none" fill-rule="evenodd"/><text fill="#343C49" fill-opacity="1" font-family="Arial,Arial_MSFontService,sans-serif" font-style="normal" font-variant="normal" font-weight="700" font-stretch="normal" font-size="48" text-anchor="start" direction="ltr" writing-mode="lr-tb" unicode-bidi="normal" text-decoration="none" transform="matrix(1 0 0 1 2430.32 1751)">Modellierung</text><path d="M1685 1880.67C1685 1864.28 1698.28 1851 1714.67 1851L2136.33 1851C2152.72 1851 2166 1864.28 2166 1880.67L2166 1999.33C2166 2015.72 2152.72 2029 2136.33 2029L1714.67 2029C1698.28 2029 1685 2015.72 1685 1999.33Z" stroke="#079DAA" stroke-width="13.75" stroke-linecap="butt" stroke-linejoin="miter" stroke-miterlimit="8" stroke-opacity="1" fill="none" fill-rule="evenodd"/><text fill="#343C49" fill-opacity="1" font-family="Arial,Arial_MSFontService,sans-serif" font-style="normal" font-variant="normal" font-weight="700" font-stretch="normal" font-size="48" text-anchor="start" direction="ltr" writing-mode="lr-tb" unicode-bidi="normal" text-decoration="none" transform="matrix(1 0 0 1 1804.22 1958)">Evaluation</text><path d="M1350 1425.5C1350 1409.21 1363.21 1396 1379.5 1396L1791.5 1396C1807.79 1396 1821 1409.21 1821 1425.5L1821 1543.5C1821 1559.79 1807.79 1573 1791.5 1573L1379.5 1573C1363.21 1573 1350 1559.79 1350 1543.5Z" stroke="#079DAA" stroke-width="13.75" stroke-linecap="butt" stroke-linejoin="miter" stroke-miterlimit="8" stroke-opacity="1" fill="none" fill-rule="evenodd"/><text fill="#343C49" fill-opacity="1" font-family="Arial,Arial_MSFontService,sans-serif" font-style="normal" font-variant="normal" font-weight="700" font-stretch="normal" font-size="48" text-anchor="start" direction="ltr" writing-mode="lr-tb" unicode-bidi="normal" text-decoration="none" transform="matrix(1 0 0 1 1455.7 1503)">Umsetzung</text><path d="M1525 885.5C1525 869.208 1538.21 856 1554.5 856L1965.5 856C1981.79 856 1995 869.208 1995 885.5L1995 1003.5C1995 1019.79 1981.79 1033 1965.5 1033L1554.5 1033C1538.21 1033 1525 1019.79 1525 1003.5Z" stroke="#079DAA" stroke-width="13.75" stroke-linecap="butt" stroke-linejoin="miter" stroke-miterlimit="8" stroke-opacity="1" fill="none" fill-rule="evenodd"/><text fill="#343C49" fill-opacity="1" font-family="Arial,Arial_MSFontService,sans-serif" font-style="normal" font-variant="normal" font-weight="700" font-stretch="normal" font-size="48" text-anchor="start" direction="ltr" writing-mode="lr-tb" unicode-bidi="normal" text-decoration="none" transform="matrix(1 0 0 1 1641.21 934)">Aufgaben<tspan fill="#343C49" fill-opacity="1" font-family="Arial,Arial_MSFontService,sans-serif" font-style="normal" font-variant="normal" font-weight="700" font-stretch="normal" font-size="48" text-anchor="start" direction="ltr" writing-mode="lr-tb" unicode-bidi="normal" text-decoration="none" x="221.719" y="0">-</tspan><tspan fill="#343C49" fill-opacity="1" font-family="Arial,Arial_MSFontService,sans-serif" font-style="normal" font-variant="normal" font-weight="700" font-stretch="normal" font-size="48" text-anchor="start" direction="ltr" writing-mode="lr-tb" unicode-bidi="normal" text-decoration="none" x="-16.3167" y="58">verständnis</tspan></text><path d="M2440 1265.67C2440 1249.28 2453.28 1236 2469.67 1236L2881.33 1236C2897.72 1236 2911 1249.28 2911 1265.67L2911 1384.33C2911 1400.72 2897.72 1414 2881.33 1414L2469.67 1414C2453.28 1414 2440 1400.72 2440 1384.33Z" stroke="#079DAA" stroke-width="13.75" stroke-linecap="butt" stroke-linejoin="miter" stroke-miterlimit="8" stroke-opacity="1" fill="none" fill-rule="evenodd"/><text fill="#343C49" fill-opacity="1" font-family="Arial,Arial_MSFontService,sans-serif" font-style="normal" font-variant="normal" font-weight="700" font-stretch="normal" font-size="48" text-anchor="start" direction="ltr" writing-mode="lr-tb" unicode-bidi="normal" text-decoration="none" transform="matrix(1 0 0 1 2600.81 1314)">Daten<tspan fill="#343C49" fill-opacity="1" font-family="Arial,Arial_MSFontService,sans-serif" font-style="normal" font-variant="normal" font-weight="700" font-stretch="normal" font-size="48" text-anchor="start" direction="ltr" writing-mode="lr-tb" unicode-bidi="normal" text-decoration="none" x="134.063" y="0">-</tspan><tspan fill="#343C49" fill-opacity="1" font-family="Arial,Arial_MSFontService,sans-serif" font-style="normal" font-variant="normal" font-weight="700" font-stretch="normal" font-size="48" text-anchor="start" direction="ltr" writing-mode="lr-tb" unicode-bidi="normal" text-decoration="none" x="-71.9126" y="58">vorbereitung</tspan></text><path d="M2120.09 518.192 2217.17 577.494 2110.62 617.365Z" stroke="#079DAA" stroke-width="4.58333" stroke-linecap="butt" stroke-linejoin="miter" stroke-miterlimit="8" stroke-opacity="1" fill="#079DAA" fill-rule="evenodd" fill-opacity="1"/><path d="M3005.32 1471.97 2943.19 1567.27 2906.47 1459.6Z" stroke="#079DAA" stroke-width="4.58333" stroke-linecap="butt" stroke-linejoin="miter" stroke-miterlimit="8" stroke-opacity="1" fill="#079DAA" fill-rule="evenodd" fill-opacity="1"/><path d="M2068.49 2282.29 1974.24 2218.59 2082.5 2183.66Z" stroke="#079DAA" stroke-width="4.58333" stroke-linecap="butt" stroke-linejoin="miter" stroke-miterlimit="8" stroke-opacity="1" fill="#079DAA" fill-rule="evenodd" fill-opacity="1"/><path d="M1266.23 1221.96 1344.7 1139.59 1361.17 1252.16Z" stroke="#079DAA" stroke-width="4.58333" stroke-linecap="butt" stroke-linejoin="miter" stroke-miterlimit="8" stroke-opacity="1" fill="#079DAA" fill-rule="evenodd" fill-opacity="1"/><path d="M2160 1304.5C2160 1319.69 2109.63 1332 2047.5 1332 1985.37 1332 1935 1319.69 1935 1304.5 1935 1289.31 1985.37 1277 2047.5 1277 2109.63 1277 2160 1289.31 2160 1304.5Z" fill="#05767F" fill-rule="evenodd" fill-opacity="1"/><path d="M2127.86 1373.33C2123.04 1373.33 2119.82 1370.57 2119.82 1366.42 2119.82 1362.27 2123.04 1359.5 2127.86 1359.5 2132.68 1359.5 2135.89 1362.27 2135.89 1366.42 2135.89 1370.57 2132.68 1373.33 2127.86 1373.33ZM2047.5 1345.67C1985.63 1345.67 1935 1333.22 1935 1318L1935 1373.33C1935 1388.55 1985.63 1401 2047.5 1401 2109.38 1401 2160 1388.55 2160 1373.33L2160 1318C2160 1333.22 2109.38 1345.67 2047.5 1345.67Z" fill="#05767F" fill-rule="evenodd" fill-opacity="1"/><path d="M2127.86 1443C2123.04 1443 2119.82 1440.2 2119.82 1436 2119.82 1431.8 2123.04 1429 2127.86 1429 2132.68 1429 2135.89 1431.8 2135.89 1436 2135.89 1440.2 2132.68 1443 2127.86 1443ZM2047.5 1415C1985.63 1415 1935 1402.4 1935 1387L1935 1443C1935 1458.4 1985.63 1471 2047.5 1471 2109.38 1471 2160 1458.4 2160 1443L2160 1387C2160 1402.4 2109.38 1415 2047.5 1415Z" fill="#05767F" fill-rule="evenodd" fill-opacity="1"/><path d="M2127.86 1512.33C2123.04 1512.33 2119.82 1509.57 2119.82 1505.42 2119.82 1501.27 2123.04 1498.5 2127.86 1498.5 2132.68 1498.5 2135.89 1501.27 2135.89 1505.42 2135.89 1509.57 2132.68 1512.33 2127.86 1512.33ZM2047.5 1484.67C1985.63 1484.67 1935 1472.22 1935 1457L1935 1512.33C1935 1527.55 1985.63 1540 2047.5 1540 2109.38 1540 2160 1527.55 2160 1512.33L2160 1457C2160 1472.22 2109.38 1484.67 2047.5 1484.67Z" fill="#05767F" fill-rule="evenodd" fill-opacity="1"/><text fill="#57657A" fill-opacity="1" font-family="Arial,Arial_MSFontService,sans-serif" font-style="normal" font-variant="normal" font-weight="400" font-stretch="normal" font-size="48" text-anchor="start" direction="ltr" writing-mode="lr-tb" unicode-bidi="normal" text-decoration="none" transform="matrix(1 0 0 1 1920.71 1598)">Datenbasis</text><path d="M1683.72 1947.66 1678.2 1947.03 1672.04 1944.95 1666.23 1941.73 1660.77 1937.52 1655.57 1932.41 1650.59 1926.48 1645.78 1919.74 1641.11 1912.22 1636.58 1903.95 1632.17 1894.96 1627.89 1885.26 1623.72 1874.88 1619.69 1863.86 1615.78 1852.22 1612.01 1839.99 1608.39 1827.2 1604.92 1813.89 1601.61 1800.08 1598.47 1785.81 1595.51 1771.11 1592.73 1756.01 1590.15 1740.52 1585.6 1708.65 1581.94 1675.69 1579.23 1641.89 1578.02 1613.43 1594.05 1612.75 1595.25 1641.06 1595.23 1640.76 1597.92 1674.28 1597.9 1674.04 1601.53 1706.76 1601.5 1706.51 1606.01 1738.16 1605.98 1737.97 1608.55 1753.31 1608.52 1753.18 1611.28 1768.14 1611.25 1768.01 1614.19 1782.57 1614.16 1782.44 1617.26 1796.56 1617.23 1796.42 1620.5 1810.08 1620.47 1809.92 1623.89 1823.08 1623.85 1822.91 1627.42 1835.53 1627.37 1835.36 1631.08 1847.4 1631.02 1847.21 1634.86 1858.65 1634.79 1858.45 1638.74 1869.25 1638.66 1869.02 1642.72 1879.16 1642.61 1878.9 1646.78 1888.33 1646.65 1888.04 1650.91 1896.73 1650.74 1896.41 1655.08 1904.32 1654.86 1903.95 1659.27 1911.06 1658.98 1910.63 1663.46 1916.9 1663.08 1916.41 1667.61 1921.8 1667.08 1921.24 1671.66 1925.73 1670.93 1925.1 1675.55 1928.65 1674.55 1928 1679.19 1930.58 1677.86 1929.99 1682.52 1931.56 1680.86 1931.19 1685.53 1931.72ZM1562.19 1621.73 1585 1573 1610.3 1620.49Z" fill="#079DAA" fill-rule="nonzero" fill-opacity="1"/><path d="M2587.28 1821.86 2586.59 1828.23 2584.36 1835.23 2580.86 1841.9 2576.23 1848.26 2570.57 1854.34 2563.96 1860.21 2556.42 1865.9 2548 1871.43 2538.72 1876.81 2528.61 1882.04 2517.71 1887.14 2506.04 1892.09 2493.63 1896.9 2480.53 1901.55 2466.76 1906.03 2452.36 1910.34 2437.37 1914.47 2421.82 1918.41 2405.75 1922.15 2389.19 1925.68 2372.18 1928.99 2354.76 1932.07 2336.96 1934.9 2318.79 1937.49 2281.69 1941.85 2243.61 1945.08 2206.46 1946.78 2205.73 1930.75 2242.72 1929.06 2242.41 1929.08 2280.2 1925.88 2279.94 1925.9 2316.82 1921.57 2316.63 1921.59 2334.64 1919.03 2334.5 1919.05 2352.17 1916.24 2352.04 1916.26 2369.32 1913.21 2369.19 1913.23 2386.06 1909.95 2385.91 1909.98 2402.33 1906.48 2402.19 1906.51 2418.11 1902.81 2417.96 1902.84 2433.35 1898.94 2433.19 1898.99 2448.02 1894.9 2447.85 1894.95 2462.07 1890.69 2461.88 1890.75 2475.46 1886.32 2475.27 1886.39 2488.16 1881.82 2487.95 1881.9 2500.13 1877.18 2499.89 1877.28 2511.31 1872.43 2511.05 1872.55 2521.67 1867.58 2521.38 1867.73 2531.17 1862.65 2530.84 1862.83 2539.76 1857.66 2539.39 1857.89 2547.4 1852.63 2546.97 1852.94 2554.04 1847.6 2553.55 1848.01 2559.63 1842.6 2559.08 1843.15 2564.14 1837.69 2563.54 1838.43 2567.54 1832.93 2566.93 1833.92 2569.83 1828.39 2569.29 1829.68 2571.07 1824.13 2570.73 1825.71 2571.33 1820.14ZM2214.69 1962.63 2166 1939.74 2213.53 1914.52Z" fill="#079DAA" fill-rule="nonzero" fill-opacity="1"/><path d="M1926 1851.35C1926 1741.51 2034.46 1631.67 2142.93 1631.67 2251.39 1631.67 2359.85 1521.84 2359.85 1412" stroke="#079DAA" stroke-width="16.0417" stroke-linecap="butt" stroke-linejoin="miter" stroke-miterlimit="8" stroke-opacity="1" fill="none" fill-rule="evenodd"/><path d="M8.02083-1.6526e-05 8.02111 135.054-8.02055 135.054-8.02083 1.6526e-05ZM24.0628 127.033 0.000360892 175.158-24.0622 127.033Z" fill="#079DAA" fill-rule="nonzero" fill-opacity="1" transform="matrix(1 0 0 -1 2662 1617.16)"/><path d="M8.02092 40.1041 8.02119 175.158-8.02047 175.158-8.02075 40.1042ZM-24.0624 48.125 0 0 24.0626 48.125Z" fill="#079DAA" fill-rule="nonzero" fill-opacity="1" transform="matrix(1 0 0 -1 2623 1617.16)"/><path d="M8.02083-1.6526e-05 8.02111 135.054-8.02055 135.054-8.02083 1.6526e-05ZM24.0628 127.033 0.000360892 175.158-24.0622 127.033Z" fill="#079DAA" fill-rule="nonzero" fill-opacity="1" transform="matrix(6.12323e-17 1 1 -6.12323e-17 2021 964)"/><path d="M8.02092 40.1041 8.02119 175.158-8.02047 175.158-8.02075 40.1042ZM-24.0624 48.125 0 0 24.0626 48.125Z" fill="#079DAA" fill-rule="nonzero" fill-opacity="1" transform="matrix(6.12323e-17 1 1 -6.12323e-17 2021 925)"/><path d="M0.502789-8.00506 10.4737-7.3788 20.8023-5.47291 30.8948-2.42059 40.6799 1.6818 50.0912 6.74382 59.0644 12.6807 67.535 19.4125 75.4373 26.8632 82.7036 34.9599 89.2636 43.632 95.0442 52.811 99.9685 62.4295 103.955 72.42 106.919 82.7139 108.767 93.2381 109.376 103.424 109.957 113.152 109.851 112.243 111.546 121.895 111.354 121.064 114.089 130.564 113.83 129.81 117.53 139.081 117.22 138.399 121.811 147.366 121.459 146.747 126.866 155.334 126.476 154.769 132.626 162.899 132.198 162.381 139.017 169.978 138.55 169.499 145.962 176.488 145.45 176.044 153.382 182.348 151.896 181.413 167.808 189.144 160.797 203.573 144.092 195.456 135.204 188.392 127.301 180.942 120.035 172.845 113.475 164.173 107.694 154.994 102.77 145.375 98.7834 135.385 95.8202 125.091 93.9718 114.567 93.3628 104.381 92.7812 94.6529 92.8879 95.5617 91.1926 85.9097 91.3847 86.741 88.65 77.2411 88.9083 77.9951 85.2084 68.7235 85.5184 69.4059 80.9275 60.4387 81.28 61.0578 75.8725 52.4711 76.2628 53.0358 70.1128 44.9057 70.5402 45.4241 63.722 37.8267 64.1891 38.3054 56.7769 31.3168 57.2889 31.7603 49.3571 25.4566 49.9217 25.8666 41.5443 20.3239 42.1707 20.6985 33.4222 15.993 34.1204 16.3262 25.0748 12.5338 25.8541 12.8142 16.5859 10.0111 17.4523 10.2214 8.03553 8.48379 8.98822 8.60118-0.502789 8.00506ZM163.483 171.007 202.739 207.805 149.747 217.13Z" fill="#079DAA" fill-rule="nonzero" fill-opacity="1" transform="matrix(1.83697e-16 1 1 -1.83697e-16 2468 1033)"/><path d="M0.454798-8.00793 8.54565-7.54842 17.0265-6.12094 25.4051-3.7982 33.6579-0.628101 41.7692 3.34334 49.7282 8.07356 57.5274 13.5239 65.16 19.6591 72.6196 26.4468 79.899 33.8567 86.9902 41.8599 93.8842 50.4288 100.571 59.5361 107.04 69.1552 113.28 79.2594 119.279 89.8226 125.023 100.818 130.501 112.22 135.698 124.002 140.625 136.194 149.474 161.363 156.982 187.63 160.216 201.195 163.057 214.898 165.503 228.768 167.539 242.781 169.149 256.909 170.318 271.125 171.031 285.403 171.27 299.581 171.506 313.625 171.498 313.36 172.197 327.377 172.18 327.12 173.329 341.082 173.304 340.832 174.886 354.712 174.854 354.467 176.855 368.237 176.816 367.997 179.22 381.63 179.175 381.395 181.967 394.863 181.915 394.631 185.081 407.907 184.991 407.563 192.385 433.43 192.239 432.974 200.948 457.743 200.818 457.398 205.628 469.303 205.53 469.07 210.624 480.618 210.515 480.382 215.878 491.545 215.758 491.304 221.375 502.056 221.24 501.81 227.097 512.122 226.947 511.869 233.027 521.715 232.858 521.453 239.148 530.806 238.958 530.535 245.442 539.366 245.226 539.085 251.889 547.367 251.643 547.076 258.471 554.782 258.189 554.48 265.167 561.582 264.843 561.271 271.955 567.742 271.582 567.423 278.813 573.236 277.411 572.331 292.031 579.732 284.785 594.045 269.417 586.264 261.34 579.772 253.881 572.985 246.601 565.575 239.51 557.572 232.616 549.003 225.929 539.895 219.46 530.276 213.22 520.172 207.222 509.609 201.477 498.613 195.999 487.211 190.802 475.429 185.876 463.237 177.026 438.069 169.519 411.801 166.284 398.236 163.443 384.534 160.997 370.663 158.962 356.651 157.352 342.523 156.182 328.306 155.469 314.028 155.23 299.851 154.994 285.806 155.003 286.071 154.303 272.054 154.32 272.311 153.171 258.349 153.196 258.6 151.614 244.72 151.646 244.965 149.646 231.195 149.684 231.434 147.28 217.801 147.325 218.037 144.533 204.568 144.585 204.801 141.419 191.524 141.509 191.868 134.116 166.002 134.261 166.458 125.552 141.689 125.682 142.033 120.872 130.129 120.97 130.361 115.876 118.814 115.985 119.05 110.622 107.886 110.743 108.127 105.125 97.3752 105.26 97.6219 99.4035 87.3091 99.5538 87.5628 93.4732 77.7164 93.642 77.9782 87.3522 68.6258 87.5426 68.8967 81.0586 60.0656 81.2745 60.3465 74.6111 52.0642 74.8571 52.3556 68.0293 44.6496 68.3109 44.9514 61.3336 37.849 61.6572 38.1605 54.5454 31.6893 54.9184 32.0084 47.687 26.1957 48.1176 26.5187 40.7816 21.392 41.2783 21.7125 33.8526 17.2993 34.4234 17.608 26.923 13.9356 27.5739 14.2193 20.0138 11.3153 20.7471 11.5572 13.1421 9.44888 13.9535 9.62913 6.31856 8.34404 7.19509 8.44239-0.454798 8.00793ZM288.315 561.525 326.5 599.431 273.264 607.235Z" fill="#079DAA" fill-rule="nonzero" fill-opacity="1" transform="matrix(-1.83697e-16 -1 -1 1.83697e-16 2359.43 1359.5)"/><rect x="0" y="0" width="0.999672" height="52.0003" stroke="#079DAA" stroke-width="16.0417" stroke-linecap="butt" stroke-linejoin="miter" stroke-miterlimit="8" stroke-opacity="1" fill="none" transform="matrix(-1 0 0 1 2360 1360)"/></g></svg>